<svg width="135" height="108" viewBox="0 0 135 108" fill="none" xmlns="http://www.w3.org/2000/svg">
<g clip-path="url(#clip0)">
<path d="M67.9148 106.409L128.521 69.7946C129.469 69.2191 129.963 68.2269 129.963 67.2545V59.8325L0.572876 59.8523V67.2545C0.572876 68.2467 1.04698 69.2191 2.01493 69.8145L62.6207 106.409C64.2603 107.401 66.295 107.401 67.9148 106.409Z" fill="url(#paint0_linear)"/>
<path d="M67.9153 99.0064L128.521 62.3924C130.437 61.2414 130.437 58.4433 128.521 57.2923L67.9153 20.6982C66.2954 19.706 64.2608 19.706 62.6212 20.6982L2.01536 57.2923C0.0992084 58.4433 0.0992084 61.2414 2.01536 62.3924L62.6212 99.0064C64.2608 99.9788 66.2954 99.9788 67.9153 99.0064Z" fill="url(#paint1_linear)"/>
<path d="M65.2683 20.5604C66.098 20.5604 66.9079 20.7787 67.5993 21.2153L128.225 57.8094C128.936 58.246 129.371 59.0001 129.371 59.8534C129.371 60.7068 128.936 61.4609 128.225 61.8975L67.6191 98.4915C66.9079 98.9281 66.098 99.1464 65.2683 99.1464C64.4387 99.1464 63.6287 98.9281 62.9176 98.4915L2.3118 61.8776C1.60065 61.441 1.16606 60.6869 1.16606 59.8336C1.16606 58.9802 1.60065 58.2261 2.3118 57.7896L62.9373 21.1955C63.6485 20.7986 64.4584 20.5604 65.2683 20.5604ZM65.2683 19.9651C64.3596 19.9651 63.4312 20.2032 62.6213 20.6994L2.01548 57.2934C0.0993305 58.4444 0.0993305 61.2426 2.01548 62.3936L62.6213 99.0075C63.4312 99.5036 64.3596 99.7418 65.2683 99.7418C66.177 99.7418 67.1055 99.5036 67.9154 99.0075L128.521 62.3936C130.437 61.2426 130.437 58.4444 128.521 57.2934L67.9154 20.6994C67.1055 20.2231 66.1968 19.9651 65.2683 19.9651Z" fill="url(#paint2_linear)"/>
<path d="M72.9523 95.2954L133.558 58.6815C134.506 58.106 135 57.1137 135 56.1413V48.7193L5.61035 48.7391V56.1413C5.61035 57.1336 6.08445 58.106 7.05241 58.7013L67.6582 95.3152C69.278 96.2678 71.3127 96.2678 72.9523 95.2954Z" fill="url(#paint3_linear)"/>
<path d="M72.9522 87.8734L133.558 51.2594C135.474 50.1084 135.474 47.3103 133.558 46.1593L72.9522 9.58507C71.3324 8.59282 69.2977 8.59282 67.6581 9.58507L7.03257 46.1593C5.11642 47.3103 5.11642 50.1084 7.03257 51.2594L67.6384 87.8734C69.278 88.8656 71.3126 88.8656 72.9522 87.8734Z" fill="url(#paint4_linear)"/>
<path d="M70.3052 9.44728C71.1348 9.44728 71.9448 9.66557 72.6362 10.1022L133.262 46.6962C133.973 47.1328 134.407 47.8869 134.407 48.7403C134.407 49.5936 133.973 50.3477 133.262 50.7843L72.6362 87.3784C71.925 87.815 71.1151 88.0333 70.2854 88.0333C69.4557 88.0333 68.6458 87.815 67.9347 87.3784L7.34864 50.7645C6.63749 50.3279 6.2029 49.5738 6.2029 48.7204C6.2029 47.8671 6.63749 47.113 7.34864 46.6764L67.9544 10.0823C68.6656 9.66557 69.4755 9.44728 70.3052 9.44728ZM70.3052 8.85193C69.3965 8.85193 68.468 9.09007 67.6581 9.58619L7.03257 46.1604C5.11642 47.3114 5.11642 50.1096 7.03257 51.2606L67.6384 87.8745C68.4483 88.3706 69.3767 88.6088 70.2854 88.6088C71.1941 88.6088 72.1226 88.3706 72.9325 87.8745L133.538 51.2606C135.454 50.1096 135.454 47.3114 133.538 46.1604L72.9522 9.58619C72.1226 9.09007 71.2139 8.85193 70.3052 8.85193Z" fill="url(#paint5_linear)"/>
<path d="M67.342 86.4446L127.948 49.8307C128.896 49.2552 129.39 48.2629 129.39 47.2905V39.8685L0 39.8884V47.2905C0 48.2828 0.4741 49.2552 1.44205 49.8505L62.0478 86.4645C63.6874 87.4369 65.7221 87.4369 67.342 86.4446Z" fill="url(#paint6_linear)"/>
<path d="M67.3424 79.0416L127.948 42.4277C129.864 41.2767 129.864 38.4785 127.948 37.3275L67.3424 0.733443C65.7226 -0.258804 63.6879 -0.258804 62.0483 0.733443L1.44249 37.3275C-0.473668 38.4785 -0.473668 41.2767 1.44249 42.4277L62.0483 79.0416C63.6879 80.014 65.7226 80.014 67.3424 79.0416Z" fill="url(#paint7_linear)"/>
<path d="M64.696 0.595348C65.5256 0.595348 66.3355 0.813643 67.0269 1.25023L127.652 37.8443C128.364 38.2809 128.798 39.035 128.798 39.8883C128.798 40.7417 128.364 41.4958 127.652 41.9324L67.0467 78.5265C66.3355 78.963 65.5256 79.1813 64.696 79.1813C63.8663 79.1813 63.0564 78.963 62.3452 78.5265L1.73941 41.9125C1.02826 41.4759 0.593668 40.7218 0.593668 39.8685C0.593668 39.0152 1.02826 38.2611 1.73941 37.8245L62.365 1.25023C63.0564 0.813643 63.8663 0.595348 64.696 0.595348ZM64.696 0C63.7873 0 62.8588 0.238139 62.0489 0.734263L1.4431 37.3283C-0.473057 38.4794 -0.473057 41.2775 1.4431 42.4285L62.0489 79.0424C62.8588 79.5385 63.7873 79.7767 64.696 79.7767C65.6046 79.7767 66.5331 79.5385 67.343 79.0424L127.949 42.4285C129.865 41.2775 129.865 38.4794 127.949 37.3283L67.343 0.734263C66.5331 0.238139 65.6244 0 64.696 0Z" fill="url(#paint8_linear)"/>
<path d="M96.8941 35.6812L90.7506 39.3724L72.3397 28.2592L78.345 24.4886L96.8941 35.6812Z" fill="#ADA3D0"/>
<path d="M65.1295 22.7027C65.1295 21.1944 66.9864 19.9641 69.2976 19.9641C71.5891 19.9641 73.4658 21.1944 73.4658 22.7027C73.4658 24.2109 71.6089 25.4413 69.2976 25.4413C66.9864 25.4413 65.1295 24.2109 65.1295 22.7027Z" fill="#ADA3D0"/>
<path d="M42.1356 31.6924L53.9289 61.5987L60.0724 57.6496L56.3389 49.3345L67.8555 42.3491L78.3648 46.8539L84.6268 43.0635L47.8051 28.2394L42.1356 31.6924ZM63.2528 40.3845L54.64 45.6235L49.662 34.5501L63.2528 40.3845Z" fill="#ADA3D0"/>
</g>
<defs>
<linearGradient id="paint0_linear" x1="0.577953" y1="83.4966" x2="129.974" y2="83.4966" gradientUnits="userSpaceOnUse">
<stop stop-color="#453F5F"/>
<stop offset="1" stop-color="#262438"/>
</linearGradient>
<linearGradient id="paint1_linear" x1="16.4097" y1="88.1971" x2="114.375" y2="31.8954" gradientUnits="userSpaceOnUse">
<stop stop-color="#514C7A"/>
<stop offset="1" stop-color="#453F5F"/>
</linearGradient>
<linearGradient id="paint2_linear" x1="32.312" y1="92.9621" x2="98.5436" y2="27.0334" gradientUnits="userSpaceOnUse">
<stop offset="0.1979" stop-color="#5F5D87"/>
<stop offset="0.8877" stop-color="#514C7A" stop-opacity="0"/>
</linearGradient>
<linearGradient id="paint3_linear" x1="5.59899" y1="72.3707" x2="134.995" y2="72.3707" gradientUnits="userSpaceOnUse">
<stop stop-color="#453F5F"/>
<stop offset="1" stop-color="#262438"/>
</linearGradient>
<linearGradient id="paint4_linear" x1="21.4302" y1="77.0712" x2="119.396" y2="20.7696" gradientUnits="userSpaceOnUse">
<stop stop-color="#514C7A"/>
<stop offset="1" stop-color="#453F5F"/>
</linearGradient>
<linearGradient id="paint5_linear" x1="37.3324" y1="81.8362" x2="103.564" y2="15.9075" gradientUnits="userSpaceOnUse">
<stop offset="0.1979" stop-color="#5F5D87"/>
<stop offset="0.8877" stop-color="#514C7A" stop-opacity="0"/>
</linearGradient>
<linearGradient id="paint6_linear" x1="0" y1="63.5295" x2="129.396" y2="63.5295" gradientUnits="userSpaceOnUse">
<stop stop-color="#453F5F"/>
<stop offset="1" stop-color="#262438"/>
</linearGradient>
<linearGradient id="paint7_linear" x1="15.8317" y1="68.2291" x2="113.797" y2="11.9275" gradientUnits="userSpaceOnUse">
<stop stop-color="#514C7A"/>
<stop offset="1" stop-color="#453F5F"/>
</linearGradient>
<linearGradient id="paint8_linear" x1="31.7346" y1="72.9938" x2="97.9662" y2="7.06513" gradientUnits="userSpaceOnUse">
<stop offset="0.1979" stop-color="#5F5D87"/>
<stop offset="0.8877" stop-color="#514C7A" stop-opacity="0"/>
</linearGradient>
<clipPath id="clip0">
<rect width="135" height="107.143" fill="white"/>
</clipPath>
</defs>
</svg>
