<svg xmlns="http://www.w3.org/2000/svg" viewBox="0 0 17.29 18.4">
    <defs><style>.a{fill: #F3C965;}</style></defs>
    <g>
        <path class="a" d="M13.08,9.53h0l-2.17,8.53a7.67,7.67,0,0,1-2.21.33,7.21,7.21,0,0,1-2.19-.33L4.34,9.54h0L7.89,0V9.54a1.56,1.56,0,1,0,1.64,0V0Z" />
        <path class="a" d="M17.29,2.22l-.84,4.16-.27,0a1.36,1.36,0,0,0-1.11.58,1.42,1.42,0,0,0-.23.77A1.33,1.33,0,0,0,15.91,9L14.6,15.48a7.43,7.43,0,0,1-2,1.8l1.87-7.35L13.12,6.38Z" />
        <path class="a" d="M4.72,17.28a7.43,7.43,0,0,1-2-1.8L1.38,9A1.33,1.33,0,0,0,2.45,7.7a1.34,1.34,0,0,0-.23-.77,1.36,1.36,0,0,0-1.11-.58l-.27,0L0,2.22,4.17,6.38,2.85,9.93Z" />
    </g>
</svg>