<svg width="142" height="72" viewBox="0 0 142 72" fill="none" xmlns="http://www.w3.org/2000/svg">
<g clip-path="url(#clip0)">
<path d="M125.843 34.3196C125.843 34.3196 76.1176 69.0272 73.4478 70.4456C65.4592 74.7006 49.1482 68.7352 26.8302 55.3444L0.924561 39.8261L65.772 0.863342L91.6985 16.3817C105.194 24.9126 116.937 31.3369 125.843 34.3196Z" fill="url(#paint0_linear)"/>
<path d="M125.843 34.3196C125.843 34.3196 76.1176 69.0272 73.4478 70.4456C65.4592 74.7006 49.1482 68.7352 26.8302 55.3444L0.924561 39.8261L65.772 0.863342L91.6985 16.3817C105.194 24.9126 116.937 31.3369 125.843 34.3196Z" fill="url(#paint1_linear)"/>
<path d="M139.818 35.1956L73.4478 70.4664C80.3517 65.3353 78.1408 56.4081 73.8232 53.5297L137.315 20.1778C142.926 25.872 142.884 33.5686 139.818 35.1956Z" fill="url(#paint2_linear)"/>
<path d="M73.8441 53.5297C73.8441 53.5297 77.8906 56.1787 77.8906 62.1232C77.8906 68.0678 73.8442 71.4259 66.7942 71.4259C55.3014 71.4259 37.9684 62.3527 1.48779 39.8678L65.8347 0.925903" stroke="url(#paint3_linear)" stroke-width="3" stroke-miterlimit="10"/>
<path d="M137.92 20.2195L74.449 53.5715" stroke="url(#paint4_linear)" stroke-width="3" stroke-miterlimit="10"/>
<path opacity="0.4" d="M51.1297 28.6462L81.4364 10.3329L65.772 0.863342L34.2556 19.6772L51.1297 28.6462Z" fill="url(#paint5_linear)"/>
<path d="M42.2649 27.1444C47.2299 27.1444 51.2547 25.1927 51.2547 22.7851C51.2547 20.3775 47.2299 18.4258 42.2649 18.4258C37.3 18.4258 33.2751 20.3775 33.2751 22.7851C33.2751 25.1927 37.3 27.1444 42.2649 27.1444Z" fill="#ADA3D0"/>
<path d="M53.4239 22.7017V25.2255C53.4239 28.3125 48.4597 30.8154 42.3692 30.8154C36.2578 30.8154 31.3145 28.3125 31.3145 25.2255V22.7017H53.4239Z" fill="#ADA3D0"/>
<path d="M53.4239 22.7017V25.2255C53.4239 28.3125 48.4597 30.8154 42.3692 30.8154C36.2578 30.8154 31.3145 28.3125 31.3145 25.2255V22.7017H53.4239Z" fill="url(#paint6_linear)"/>
<path d="M42.3484 28.3125C48.4538 28.3125 53.4032 25.8097 53.4032 22.7225C53.4032 19.6353 48.4538 17.1326 42.3484 17.1326C36.2431 17.1326 31.2937 19.6353 31.2937 22.7225C31.2937 25.8097 36.2431 28.3125 42.3484 28.3125Z" fill="#ADA3D0"/>
<path d="M42.3484 28.3125C48.4538 28.3125 53.4032 25.8097 53.4032 22.7225C53.4032 19.6353 48.4538 17.1326 42.3484 17.1326C36.2431 17.1326 31.2937 19.6353 31.2937 22.7225C31.2937 25.8097 36.2431 28.3125 42.3484 28.3125Z" fill="url(#paint7_linear)"/>
<path d="M42.3484 17.7583C48.001 17.7583 52.7774 20.0318 52.7774 22.7225C52.7774 25.4132 48.001 27.6867 42.3484 27.6867C36.6959 27.6867 31.9194 25.4132 31.9194 22.7225C31.9194 20.0318 36.6959 17.7583 42.3484 17.7583ZM42.3484 17.1326C36.237 17.1326 31.2937 19.6355 31.2937 22.7225C31.2937 25.8095 36.237 28.3125 42.3484 28.3125C48.4598 28.3125 53.4032 25.8095 53.4032 22.7225C53.4032 19.6355 48.4598 17.1326 42.3484 17.1326Z" fill="url(#paint8_linear)"/>
<path d="M50.1911 22.3471C50.1911 24.5372 46.6869 26.3101 42.3485 26.3101C38.01 26.3101 34.5059 24.5372 34.5059 22.3471C34.5059 22.2428 34.5059 22.1385 34.5267 22.0551C34.5267 19.6564 37.3843 18.3632 37.3843 14.0873C37.3843 12.3144 36.4248 7.9342 36.4248 6.66187C36.4248 6.62015 36.4457 6.57844 36.4457 6.53672C36.8002 5.0558 39.3032 3.88776 42.3485 3.88776C45.3937 3.88776 47.8967 5.03495 48.2513 6.53672C48.2513 6.57844 48.2721 6.62015 48.2721 6.66187C48.2721 7.95506 47.3127 12.3352 47.3127 14.0873C47.3127 18.3423 50.1702 19.6355 50.1702 22.0551C50.1911 22.1385 50.1911 22.2428 50.1911 22.3471Z" fill="#ADA3D0"/>
<path d="M50.1911 22.3471C50.1911 24.5372 46.6869 26.3101 42.3485 26.3101C38.01 26.3101 34.5059 24.5372 34.5059 22.3471C34.5059 22.2428 34.5059 22.1385 34.5267 22.0551C34.5267 19.6564 37.3843 18.3632 37.3843 14.0873C37.3843 12.3144 36.4248 7.9342 36.4248 6.66187C36.4248 6.62015 36.4457 6.57844 36.4457 6.53672C36.8002 5.0558 39.3032 3.88776 42.3485 3.88776C45.3937 3.88776 47.8967 5.03495 48.2513 6.53672C48.2513 6.57844 48.2721 6.62015 48.2721 6.66187C48.2721 7.95506 47.3127 12.3352 47.3127 14.0873C47.3127 18.3423 50.1702 19.6355 50.1702 22.0551C50.1911 22.1385 50.1911 22.2428 50.1911 22.3471Z" fill="url(#paint9_linear)"/>
<path d="M48.272 6.66187C48.2929 6.72444 48.2929 6.80787 48.2929 6.87045C48.2929 8.51823 45.623 9.874 42.3483 9.874C39.0736 9.874 36.4038 8.53909 36.4038 6.87045V4.76379H48.272V6.66187Z" fill="#ADA3D0"/>
<path d="M48.272 6.66187C48.2929 6.72444 48.2929 6.80787 48.2929 6.87045C48.2929 8.51823 45.623 9.874 42.3483 9.874C39.0736 9.874 36.4038 8.53909 36.4038 6.87045V4.76379H48.272V6.66187Z" fill="url(#paint10_linear)"/>
<path d="M48.272 4.53431C48.2929 4.61774 48.2929 4.68031 48.2929 4.76374C48.2929 6.41152 45.6439 7.76729 42.3483 7.76729C39.0528 7.76729 36.4038 6.43238 36.4038 4.76374C36.4038 4.68031 36.4038 4.61774 36.4247 4.53431C36.6541 2.99081 39.2196 1.76019 42.3483 1.76019C45.477 1.76019 48.0426 2.99081 48.272 4.53431Z" fill="#ADA3D0"/>
<path d="M42.3483 2.38593C45.3102 2.38593 47.4794 3.53312 47.6463 4.61774C47.6463 4.65945 47.6463 4.70117 47.6463 4.76374C47.6463 5.89007 45.4562 7.14155 42.3275 7.14155C39.1988 7.14155 37.0087 5.89007 37.0087 4.76374C37.0087 4.72203 37.0087 4.68031 37.0087 4.61774C37.2173 3.55398 39.3865 2.38593 42.3483 2.38593ZM42.3483 1.76019C39.2196 1.76019 36.6541 2.96996 36.4247 4.53431C36.4038 4.61774 36.4038 4.68031 36.4038 4.76374C36.4038 6.41152 39.0528 7.76729 42.3483 7.76729C45.623 7.76729 48.2929 6.43238 48.2929 4.76374C48.2929 4.68031 48.2929 4.61774 48.272 4.53431C48.0426 2.99081 45.477 1.76019 42.3483 1.76019Z" fill="url(#paint11_linear)"/>
</g>
<defs>
<linearGradient id="paint0_linear" x1="6.60986" y1="56.811" x2="120.604" y2="18.6749" gradientUnits="userSpaceOnUse">
<stop stop-color="#514C7A"/>
<stop offset="1" stop-color="#453F5F"/>
</linearGradient>
<linearGradient id="paint1_linear" x1="70.0218" y1="44.2243" x2="89.0026" y2="64.6651" gradientUnits="userSpaceOnUse">
<stop offset="0.1658" stop-color="#453F5F" stop-opacity="0"/>
<stop offset="0.4366" stop-color="#423C5B" stop-opacity="0.3247"/>
<stop offset="0.6984" stop-color="#393450" stop-opacity="0.6384"/>
<stop offset="0.9557" stop-color="#29273C" stop-opacity="0.9468"/>
<stop offset="1" stop-color="#262438"/>
</linearGradient>
<linearGradient id="paint2_linear" x1="69.1033" y1="57.453" x2="143.281" y2="32.6373" gradientUnits="userSpaceOnUse">
<stop stop-color="#453F5F"/>
<stop offset="1" stop-color="#262438"/>
</linearGradient>
<linearGradient id="paint3_linear" x1="6.50873" y1="56.6605" x2="76.6963" y2="33.1796" gradientUnits="userSpaceOnUse">
<stop offset="0.1979" stop-color="#5F5D87"/>
<stop offset="0.8877" stop-color="#514C7A" stop-opacity="0"/>
</linearGradient>
<linearGradient id="paint4_linear" x1="72.5759" y1="48.1356" x2="139.792" y2="25.6486" gradientUnits="userSpaceOnUse">
<stop stop-color="#514C7A" stop-opacity="0"/>
<stop offset="0.3209" stop-color="#5F5D87"/>
<stop offset="0.8021" stop-color="#514C7A" stop-opacity="0"/>
</linearGradient>
<linearGradient id="paint5_linear" x1="35.2018" y1="22.5296" x2="80.4548" y2="7.39043" gradientUnits="userSpaceOnUse">
<stop stop-color="#262438"/>
<stop offset="1" stop-color="#262438" stop-opacity="0"/>
</linearGradient>
<linearGradient id="paint6_linear" x1="55.609" y1="20.9862" x2="36.6978" y2="27.3827" gradientUnits="userSpaceOnUse">
<stop offset="0.2326" stop-color="#7E79A3"/>
<stop offset="0.8556" stop-color="#7E79A3" stop-opacity="0"/>
</linearGradient>
<linearGradient id="paint7_linear" x1="52.6513" y1="18.381" x2="32.1641" y2="27.0023" gradientUnits="userSpaceOnUse">
<stop offset="0.1979" stop-color="#9991BC"/>
<stop offset="0.8877" stop-color="#ADA3D0" stop-opacity="0"/>
</linearGradient>
<linearGradient id="paint8_linear" x1="31.2954" y1="22.7123" x2="53.4218" y2="22.7123" gradientUnits="userSpaceOnUse">
<stop offset="0.1979" stop-color="#CDC7EA"/>
<stop offset="0.8877" stop-color="#ADA3D0" stop-opacity="0"/>
</linearGradient>
<linearGradient id="paint9_linear" x1="51.7649" y1="13.8057" x2="34.9858" y2="16.1233" gradientUnits="userSpaceOnUse">
<stop offset="0.2326" stop-color="#7E79A3"/>
<stop offset="0.8556" stop-color="#7E79A3" stop-opacity="0"/>
</linearGradient>
<linearGradient id="paint10_linear" x1="49.4922" y1="7.38881" x2="38.8314" y2="7.2034" gradientUnits="userSpaceOnUse">
<stop offset="0.2326" stop-color="#7E79A3"/>
<stop offset="0.8556" stop-color="#7E79A3" stop-opacity="0"/>
</linearGradient>
<linearGradient id="paint11_linear" x1="36.4225" y1="4.76126" x2="48.2946" y2="4.76126" gradientUnits="userSpaceOnUse">
<stop offset="0.1979" stop-color="#CDC7EA"/>
<stop offset="0.8877" stop-color="#ADA3D0" stop-opacity="0"/>
</linearGradient>
<clipPath id="clip0">
<rect x="0.882812" y="0.654785" width="141" height="71.1675" fill="white"/>
</clipPath>
</defs>
</svg>
