<svg width="129" height="148" viewBox="0 0 129 148" fill="none" xmlns="http://www.w3.org/2000/svg">
<g clip-path="url(#clip0)">
<path opacity="0.1" d="M99.1902 107.591C96.6559 97.7892 82.0772 90.294 64.4874 90.294C46.8977 90.294 32.319 97.8143 29.7847 107.591L54.3501 12.4335C55.5044 7.92135 59.6195 4.58734 64.4874 4.58734C69.3554 4.58734 73.4705 7.92135 74.6248 12.4335L99.1902 107.591Z" fill="#D7C175"/>
<path opacity="0.2" d="M99.5917 110.624C99.5917 121.854 83.8838 130.954 64.5125 130.954C45.1412 130.954 29.4333 121.854 29.4333 110.624C29.4333 109.596 29.5588 108.568 29.8097 107.591C32.3441 97.7893 46.9227 90.2941 64.5125 90.2941C82.1023 90.2941 96.681 97.8144 99.2153 107.591C99.4411 108.594 99.5917 109.596 99.5917 110.624Z" fill="#D7C175"/>
<path opacity="0.2" d="M129 110.624C129 131.255 100.119 148 64.5126 148C28.9064 148 0 131.28 0 110.624C0 108.719 0.250924 106.864 0.702587 105.059C5.36977 87.0603 32.1434 73.248 64.4875 73.248C96.8316 73.248 123.63 87.0603 128.272 105.059C128.749 106.864 129 108.744 129 110.624Z" fill="url(#paint0_radial)"/>
<path d="M64.4874 117.342C71.8323 117.342 77.7864 114.334 77.7864 110.624C77.7864 106.914 71.8323 103.906 64.4874 103.906C57.1426 103.906 51.1885 106.914 51.1885 110.624C51.1885 114.334 57.1426 117.342 64.4874 117.342Z" fill="#2E2A41"/>
<path opacity="0.08" d="M64.4874 117.342C71.8323 117.342 77.7864 114.334 77.7864 110.624C77.7864 106.914 71.8323 103.906 64.4874 103.906C57.1426 103.906 51.1885 106.914 51.1885 110.624C51.1885 114.334 57.1426 117.342 64.4874 117.342Z" fill="url(#paint1_radial)"/>
<path d="M64.4875 104.658C71.2875 104.658 77.0337 107.39 77.0337 110.624C77.0337 113.858 71.2875 116.59 64.4875 116.59C57.6874 116.59 51.9412 113.858 51.9412 110.624C51.9412 107.39 57.6874 104.658 64.4875 104.658ZM64.4875 103.906C57.1354 103.906 51.1885 106.914 51.1885 110.624C51.1885 114.334 57.1354 117.342 64.4875 117.342C71.8395 117.342 77.7864 114.334 77.7864 110.624C77.8115 106.914 71.8395 103.906 64.4875 103.906Z" fill="url(#paint2_linear)"/>
<path d="M64.4874 112.303C62.6055 112.303 61.1 110.799 61.1 108.919V52.8428C61.1 50.9627 62.6055 49.4586 64.4874 49.4586C66.3694 49.4586 67.8749 50.9627 67.8749 52.8428V108.919C67.8749 110.799 66.3694 112.303 64.4874 112.303Z" fill="url(#paint3_linear)"/>
<path d="M96.7563 73.4986C96.7563 81.5705 84.9879 82.8489 83.3318 74.8774C82.6292 71.5183 79.3672 69.3875 76.0299 70.0894C72.793 70.7412 70.6853 73.8245 71.162 77.0332C72.0402 81.1944 68.7782 85.1802 64.5125 85.1802C60.2468 85.1802 56.9848 81.1944 57.863 77.0332C58.3398 73.8245 56.232 70.7412 52.9951 70.0894C49.6327 69.3875 46.3958 71.5434 45.6932 74.8774C44.0371 82.8489 32.2688 81.5705 32.2688 73.4986C32.2688 58.0318 40.8002 13.4363 53.2209 4.36179C56.1819 1.65447 60.1465 0 64.4874 0C68.8284 0 72.793 1.65447 75.779 4.36179C88.2248 13.4363 96.7563 58.0318 96.7563 73.4986Z" fill="#514C7A"/>
<path d="M85.289 19.1016C79.7687 24.0149 72.4919 27.023 64.5125 27.023C56.5331 27.023 49.2563 24.04 43.736 19.1016C46.5212 12.3333 49.708 6.94377 53.2209 4.36179C56.1818 1.65447 60.1464 0 64.4874 0C68.8284 0 72.793 1.65447 75.779 4.36179C79.2919 6.9187 82.5037 12.3333 85.289 19.1016Z" fill="#ADA3D0"/>
<path d="M92.6912 43.9437C85.0632 50.3861 75.2269 54.2716 64.4874 54.2716C53.7479 54.2716 43.9116 50.3861 36.2836 43.9437C35.9072 45.6233 35.581 47.2777 35.2548 48.9071C43.3847 55.0989 53.522 58.7838 64.4874 58.7838C75.4528 58.7838 85.6152 55.0989 93.72 48.9071C93.4189 47.2527 93.0676 45.5982 92.6912 43.9437Z" fill="#ADA3D0"/>
<path opacity="0.4" d="M96.7563 73.4986C96.7563 81.5705 84.9879 82.874 83.3318 74.8774C82.6292 71.5434 79.3672 69.3875 76.0299 70.0894C72.793 70.7412 70.6853 73.8245 71.162 77.0332C72.0402 81.1944 68.7782 85.1802 64.5125 85.1802C60.2468 85.1802 56.9848 81.1944 57.863 77.0332C58.3398 73.8245 56.232 70.7412 52.9951 70.0894C49.6327 69.3875 46.3958 71.5434 45.6932 74.8774C44.0371 82.874 32.2688 81.5705 32.2688 73.4986C32.2688 62.3936 36.66 36.2981 43.736 19.1016C46.5213 12.3333 49.708 6.94377 53.2209 4.36179C56.1819 1.65447 60.1465 0 64.4874 0C68.8284 0 72.793 1.65447 75.779 4.36179C79.2919 6.9187 82.4787 12.3083 85.2639 19.1016C92.3651 36.2981 96.7563 62.3936 96.7563 73.4986Z" fill="url(#paint4_linear)"/>
</g>
<defs>
<radialGradient id="paint0_radial" cx="0" cy="0" r="1" gradientUnits="userSpaceOnUse" gradientTransform="translate(64.4975 110.626) scale(62.4701 35.0051)">
<stop offset="0.0534759" stop-color="#D7C175"/>
<stop offset="0.8182" stop-color="#D7C175" stop-opacity="0"/>
</radialGradient>
<radialGradient id="paint1_radial" cx="0" cy="0" r="1" gradientUnits="userSpaceOnUse" gradientTransform="translate(64.4974 110.629) scale(11.6234 5.98363)">
<stop stop-color="#D7C175" stop-opacity="0"/>
<stop offset="1" stop-color="#D7C175"/>
</radialGradient>
<linearGradient id="paint2_linear" x1="64.4974" y1="117.344" x2="64.4974" y2="103.915" gradientUnits="userSpaceOnUse">
<stop offset="0.1979" stop-color="#5F5D87"/>
<stop offset="0.8877" stop-color="#514C7A" stop-opacity="0"/>
</linearGradient>
<linearGradient id="paint3_linear" x1="64.4973" y1="112.306" x2="64.4973" y2="49.4543" gradientUnits="userSpaceOnUse">
<stop offset="0.1979" stop-color="#5F5D87"/>
<stop offset="0.6845" stop-color="#2E2A41"/>
</linearGradient>
<linearGradient id="paint4_linear" x1="94.1918" y1="35.1754" x2="70.9427" y2="41.7049" gradientUnits="userSpaceOnUse">
<stop stop-color="#262438"/>
<stop offset="1" stop-color="#262438" stop-opacity="0"/>
</linearGradient>
<clipPath id="clip0">
<rect width="129" height="148" fill="white"/>
</clipPath>
</defs>
</svg>
